<svg viewBox="0 1 511 511.99913" xmlns="http://www.w3.org/2000/svg"><path d="m90.5 407c0 8.285156 6.714844 15 15 15h61c8.28125 0 15-6.714844 15-15v-91c0-8.285156-6.71875-15-15-15h-61c-8.285156 0-15 6.714844-15 15zm30-76h31v61h-31zm0 0"/><path d="m226.5 422h60c8.28125 0 15-6.714844 15-15v-121c0-8.285156-6.71875-15-15-15h-60c-8.285156 0-15 6.714844-15 15v121c0 8.285156 6.714844 15 15 15zm15-121h30v91h-30zm0 0"/><path d="m346.5 422h60c8.28125 0 15-6.714844 15-15v-151c0-8.285156-6.71875-15-15-15h-60c-8.285156 0-15 6.714844-15 15v151c0 8.285156 6.714844 15 15 15zm15-151h30v121h-30zm0 0"/><path d="m26.105469 55.605469 4.394531-4.390625v415.785156c0 8.285156 6.714844 15 15 15h415.785156l-4.390625 4.394531c-5.859375 5.855469-5.859375 15.351563 0 21.210938 5.855469 5.859375 15.355469 5.859375 21.210938 0l30-30c5.777343-5.777344 5.902343-15.3125 0-21.210938l-30-30c-5.855469-5.859375-15.351563-5.859375-21.210938 0-5.859375 5.855469-5.859375 15.351563 0 21.210938l4.390625 4.394531h-400.785156v-400.785156l4.394531 4.390625c5.855469 5.859375 15.355469 5.859375 21.210938 0 5.859375-5.855469 5.859375-15.351563 0-21.210938l-29.996094-30c-5.863281-5.863281-15.398437-5.820312-21.21875 0l-29.996094 30c-5.859375 5.855469-5.859375 15.351563 0 21.210938 5.855469 5.859375 15.355469 5.859375 21.210938 0zm0 0"/><path d="m376.5 150c-8.273438 0-15-6.730469-15-15 0-8.285156-6.71875-15-15-15-8.285156 0-15 6.714844-15 15 0 19.554688 12.539062 36.226562 30 42.421875v17.578125c0 8.285156 6.714844 15 15 15 8.28125 0 15-6.714844 15-15v-17.578125c17.457031-6.195313 30-22.867187 30-42.421875 0-24.8125-20.1875-45-45-45-8.273438 0-15-6.730469-15-15s6.726562-15 15-15c8.269531 0 15 6.730469 15 15 0 8.285156 6.714844 15 15 15 8.28125 0 15-6.714844 15-15 0-19.554688-12.542969-36.226562-30-42.421875v-17.578125c0-8.285156-6.71875-15-15-15-8.285156 0-15 6.714844-15 15v17.578125c-17.460938 6.195313-30 22.867187-30 42.421875 0 24.8125 20.1875 45 45 45 8.269531 0 15 6.730469 15 15s-6.730469 15-15 15zm0 0"/></svg>